<?xml version="1.0" encoding="UTF-8" standalone="no"?>
<!-- Created with Inkscape (http://www.inkscape.org/) -->

<svg
   xmlns:dc="http://purl.org/dc/elements/1.1/"
   xmlns:cc="http://creativecommons.org/ns#"
   xmlns:rdf="http://www.w3.org/1999/02/22-rdf-syntax-ns#"
   xmlns:svg="http://www.w3.org/2000/svg"
   xmlns="http://www.w3.org/2000/svg"
   xmlns:sodipodi="http://sodipodi.sourceforge.net/DTD/sodipodi-0.dtd"
   xmlns:inkscape="http://www.inkscape.org/namespaces/inkscape"
   width="247.49973mm"
   height="20.972269mm"
   viewBox="0 0 247.49973 20.972269"
   version="1.1"
   id="svg4168"
   inkscape:version="0.92.1 r15371"
   sodipodi:docname="The_Wall_Street_Journal.svg">
  <defs
     id="defs4162" />
  <sodipodi:namedview
     id="base"
     pagecolor="#ffffff"
     bordercolor="#666666"
     borderopacity="1.0"
     inkscape:pageopacity="0.0"
     inkscape:pageshadow="2"
     inkscape:zoom="0.35"
     inkscape:cx="467.71601"
     inkscape:cy="39.63268"
     inkscape:document-units="mm"
     inkscape:current-layer="layer1"
     showgrid="false"
     fit-margin-top="0"
     fit-margin-left="0"
     fit-margin-right="0"
     fit-margin-bottom="0"
     inkscape:window-width="1920"
     inkscape:window-height="1001"
     inkscape:window-x="-9"
     inkscape:window-y="-9"
     inkscape:window-maximized="1" />
  <metadata
     id="metadata4165">
    <rdf:RDF>
      <cc:Work
         rdf:about="">
        <dc:format>image/svg+xml</dc:format>
        <dc:type
           rdf:resource="http://purl.org/dc/dcmitype/StillImage" />
        <dc:title></dc:title>
      </cc:Work>
    </rdf:RDF>
  </metadata>
  <g
     inkscape:label="Ebene 1"
     inkscape:groupmode="layer"
     id="layer1"
     transform="translate(228.07129,-138.34721)">
    <path
       inkscape:connector-curvature="0"
       id="path38205"
       style="fill:#1c1c21;fill-opacity:1;fill-rule:nonzero;stroke:none;stroke-width:0.28222224"
       d="m 18.108341,156.43905 c -0.72002,0 -1.3201,0.60043 -1.3201,1.41075 0,0.80964 0.60008,1.41006 1.3201,1.41006 0.71967,0 1.32009,-0.60042 1.32009,-1.41006 0,-0.81032 -0.60042,-1.41075 -1.32009,-1.41075 m -47.76576,2.7305 h 6.06037 v -0.54011 l -0.65934,-0.14992 c -0.60043,-0.15028 -0.87101,-0.48015 -0.87101,-1.32046 v -8.16046 h 1.41076 c 0.86995,0 1.32009,0.20992 1.37971,2.04013 l 0.15029,3.84034 c 0.11994,3.45017 1.11019,4.41077 2.79082,4.41077 1.70991,0 2.16006,-1.17052 2.16006,-2.82045 v -0.69037 h -0.63077 v 0.50975 c 0,1.11088 -0.14922,1.89052 -0.56973,1.89052 -0.38982,0 -0.42016,-0.29986 -0.51012,-1.67993 l -0.17956,-2.64019 c -0.24025,-3.54047 -0.69039,-4.7706 -3.30095,-5.25108 2.49061,-0.65969 4.02061,-2.49027 4.02061,-5.10046 0,-3.39056 -2.67017,-5.01086 -5.2204,-5.01086 h -10.23091 v 0.54046 l 0.56973,0.11958 c 1.08021,0.24025 1.11055,0.81034 1.11055,3.24098 v 11.94116 c 0,2.67053 -0.75071,3.96029 -2.46133,3.96029 -1.52929,0 -2.36961,-0.75001 -2.36961,-3.66043 v -14.19154 c 0,-0.84032 0.26952,-1.07984 0.92957,-1.23012 l 0.81033,-0.17992 v -0.54046 h -6.27027 v 0.54046 l 0.65934,0.17992 c 0.60043,0.17991 0.81033,0.42014 0.81033,1.26012 v 13.95165 c 0,3.15031 1.83056,4.89055 4.62104,4.89055 2.79012,0 4.16983,-1.74024 4.16983,-4.98052 v -13.02173 c 0,-1.61996 0.3309,-2.19005 1.65029,-2.19005 1.05022,0 1.50072,0.3602 1.50072,1.3501 v 16.68179 c 0,0.84031 -0.26987,1.14018 -0.8703,1.29046 l -0.66005,0.17992 z m 40.26465,-18.69228 c 0,-0.83998 0.27058,-1.10984 0.86995,-1.23015 l 0.81033,-0.18026 v -0.57009 H 6.0468714 v 0.54046 l 0.66004,0.17992 c 0.60043,0.17991 0.86995,0.42014 0.86995,1.26012 v 16.80244 c 0,0.80964 -0.32949,1.25978 -1.26047,1.25978 -1.07985,0 -1.23014,-0.3602 -1.6196,-2.13007 L 0.85645143,138.43714 h -1.20051 l -3.65971003,17.40182 c -0.42087,1.95016 -0.63077,2.40067 -1.4411,2.64056 l -0.51012,0.14992 v 0.54011 h 4.29084 v -0.54011 l -0.63006,-0.11995 c -0.90029,-0.18025 -1.13983,-0.65969 -0.68968,-2.94039 l 2.16006003,-11.13155 2.36995997,11.79159 c 0.36018,1.71026 0.33055,2.04046 -0.95990997,2.28035 l -0.63006,0.11995 v 0.54011 H 15.857971 v -6.84073 h -0.57009 c -0.29986,3.15034 -0.92957,6.1207 -3.48015,6.1207 h -1.2005 z m -9.3609596,13.11171 v -0.81001 h -4.0506 l -0.11959,0.81001 z M -15.495859,140.83744 v 14.34149 c 0,2.16041 0,3.18064 -1.07985,3.36056 l -0.54011,0.0899 v 0.54012 h 4.41008 v -0.54012 c -1.91982,-0.26986 -1.91982,-0.92992 -1.91982,-3.27025 v -13.62145 l -0.72002,-0.6604 7.3508304,18.09222 h 1.25977 V 142.4877 c 0,-2.46025 0,-3.00037 1.20051,-3.33093 l 0.42015,-0.11958 v -0.54046 h -4.53107 v 0.54046 l 0.51011,0.11958 c 1.53035,0.27023 1.53035,0.87068 1.53035,3.15067 v 10.44115 l 0.30022,-0.0899 -5.5806004,-14.16191 h -4.29083 v 0.54046 l 0.42016,0.11957 c 0.48048,0.15029 0.75036,0.6904 1.26012,1.68064 m -9.63154,-1.6203 h 1.20086 c 1.19979,0 2.30998,0.77998 2.30998,4.68066 0,3.99025 -0.83961,4.38043 -2.51989,4.38043 h -0.99095 z m -19.98169,9.42129 c 0,8.67057 -0.72002,9.90106 -2.2807,9.90106 -1.55999,0 -2.25002,-1.23049 -2.25002,-9.84145 0,-8.34072 0.75036,-9.54123 2.25002,-9.54123 1.56068,0 2.2807,1.20051 2.2807,9.48162 m 3.27061,0.17992 c 0,-5.73089 -1.83057,-10.47115 -5.55131,-10.47115 -3.75003,0 -5.52063,4.74026 -5.52063,10.47115 0,5.76086 1.83022,10.50112 5.52063,10.50112 3.8107,0 5.55131,-4.74026 5.55131,-10.50112 m -12.84147,-8.34108 c 0,-0.83998 0.20991,-1.10984 0.80927,-1.26012 l 0.66005,-0.17992 v -0.54046 h -6.2103 v 0.54046 l 0.74965,0.17992 c 0.60008,0.15028 0.93063,0.36017 0.93063,1.23012 v 14.4318 c 0,2.01013 -0.18027,3.63042 -1.68028,3.63042 -0.96026,0 -1.68028,-0.75034 -1.64994,-1.29009 0.0893,-0.93063 1.64994,-0.86995 1.76989,-2.37067 0.09,-1.07987 -0.60043,-1.53001 -1.23014,-1.61962 -0.93027,-0.12028 -2.06975,0.6597 -2.10044,2.22005 -0.0303,2.01013 1.29011,3.84068 3.54048,3.84068 2.49061,0 4.41113,-1.68027 4.41113,-4.89125 z m -100.212881,0 c 0,-0.83998 0.27023,-1.10984 0.8703,-1.23015 l 0.80998,-0.18026 v -0.57009 h -6.24064 v 0.54046 l 0.66005,0.17992 c 0.60007,0.17991 0.8703,0.42014 0.8703,1.26012 v 16.80244 c 0,0.80964 -0.33055,1.25978 -1.26047,1.25978 -1.08021,0 -1.26012,-0.3602 -1.64994,-2.13007 l -3.84069,-17.97228 h -1.1998 l -3.66078,17.40182 c -0.4198,1.95016 -0.63006,2.40067 -1.44004,2.64056 l -0.51011,0.14992 v 0.54011 h 4.29048 v -0.54011 l -0.63006,-0.11995 c -0.89994,-0.18025 -1.14018,-0.65969 -0.69003,-2.94039 l 2.16041,-11.19152 2.37031,11.85156 c 0.32985,1.71026 0.32985,2.04046 -0.96026,2.28035 l -0.63006,0.11995 v 0.54011 h 15.93215 v -6.84073 h -0.57009 c -0.30021,3.15034 -0.93027,6.1207 -3.48051,6.1207 h -1.2005 z m 83.530021,-1.26012 h 0.6604 c 1.86055,0 2.49061,2.97002 2.70052,6.12069 h 0.56973 v -6.84107 h -10.89131 v 6.84107 h 0.57009 c 0.21026,-3.15067 0.84032,-6.12069 2.70051,-6.12069 h 0.66005 v 17.94191 c 0,0.84031 -0.26987,1.14018 -0.86995,1.29046 l -0.77999,0.17992 v 0.54011 h 6.48088 v -0.54011 l -0.93063,-0.20989 c -0.57008,-0.14995 -0.8703,-0.3302 -0.8703,-1.26049 z m -13.71141,9.57086 0.92992,0.0303 c 1.35043,0.03 1.7399,0.54012 2.01083,3.8107 h 0.56974 v -8.34108 h -0.56974 c -0.33055,2.61019 -0.69074,3.72003 -1.98049,3.75037 l -0.96026,0.03 v -8.85119 h 2.07045 c 2.31034,0 2.82046,2.91041 3.1503,6.12069 h 0.57009 v -6.84107 h -10.3512 v 0.54046 l 0.66005,0.17992 c 0.68967,0.17991 0.86995,0.60042 0.86995,1.29009 v 16.65182 c 0,0.84031 -0.26953,1.14018 -0.86995,1.29046 l -0.66005,0.17992 v 0.54011 h 10.65106 v -6.84073 h -0.57009 c -0.36018,3.12034 -0.75,6.1207 -3.45016,6.1207 h -2.07045 z m -11.31147,0 0.93027,0.0303 c 1.35009,0.03 1.74026,0.54012 2.01013,3.8107 h 0.57009 v -8.34108 h -0.57009 c -0.32984,2.61019 -0.69003,3.72003 -1.97979,3.75037 l -0.96061,0.03 v -8.85119 h 2.07045 c 2.31034,0 2.82046,2.97002 3.15031,6.12069 h 0.57009 v -6.84107 h -10.651071 v 0.54046 l 0.95991,0.17992 c 0.690031,0.17991 0.870301,0.60042 0.870301,1.29009 v 16.65182 c 0,0.84031 -0.27023,1.14018 -0.870301,1.29046 l -0.66005,0.17992 v 0.54011 h 10.651071 v -6.84073 h -0.56974 c -0.36019,3.12034 -0.75036,6.1207 -3.45052,6.1207 h -2.07045 z m -12.331351,-9.57086 h 0.90029 c 1.1998,0 2.30999,0.77997 2.30999,4.68065 0,3.93029 -0.83961,4.38043 -2.51989,4.38043 h -0.69039 z m -4.53072,19.9524 h 6.06107 v -0.54011 l -0.6604,-0.14992 c -0.60007,-0.15028 -0.86995,-0.48015 -0.86995,-1.32046 v -8.16046 h 1.11019 c 0.86995,0 1.3201,0.35986 1.38007,2.04013 l 0.14993,3.84034 c 0.1203,3.45017 1.11019,4.41077 2.79047,4.41077 1.71027,0 2.16006,-1.17052 2.16006,-2.82045 v -0.69037 h -0.63006 v 0.50975 c 0,1.11088 -0.14958,1.89052 -0.56974,1.89052 -0.39017,0 -0.42051,-0.29986 -0.51011,-1.6799 l -0.18027,-2.64022 c -0.23989,-3.63042 -0.72002,-4.7706 -3.30024,-5.25108 2.49026,-0.65969 4.02026,-2.49027 4.02026,-5.10046 0,-3.39056 -2.67018,-5.01086 -5.22041,-5.01086 h -5.73087 v 0.54046 l 0.66004,0.17992 c 0.60043,0.17991 0.86995,0.42014 0.86995,1.26012 v 16.68179 c 0,0.84031 -0.26952,1.14018 -0.86995,1.29046 l -0.66004,0.17992 z m -4.59035,-19.9524 h 0.66005 c 1.8602,0 2.49026,2.97002 2.70051,6.12069 h 0.56974 v -6.84107 h -10.89131 v 6.84107 h 0.57009 c 0.2099,-3.15067 0.84032,-6.12069 2.70051,-6.12069 h 0.66005 v 17.94191 c 0,0.84031 -0.27023,1.14018 -0.86995,1.29046 l -0.78034,0.17992 v 0.54011 h 6.33059 v -0.54011 l -0.77999,-0.17992 c -0.77999,-0.17992 -0.86995,-0.77998 -0.86995,-1.29046 z m -6.93102,14.58171 c 0,-6.15069 -6.75041,-7.77099 -6.75041,-12.24139 0,-0.95992 0.35984,-2.40066 1.85985,-2.40066 2.16041,0 2.97039,2.79084 3.33057,6.18103 h 0.57009 v -6.84107 h -0.36018 c -0.14994,0.66004 -0.42016,0.9606 -0.80963,0.9606 -0.69038,0 -1.05057,-1.0802 -2.70051,-1.0802 -2.55059,0 -4.29084,2.13007 -4.29084,4.92054 0,5.07049 6.75111,7.20056 6.75111,11.88122 0,2.13007 -0.9906,3.33056 -2.34033,3.33056 -2.01013,0 -3.33057,-2.36996 -3.69041,-6.18067 h -0.57008 v 6.84073 h 0.35983 c 0.30021,-0.99026 0.69003,-1.0802 1.01988,-1.0802 0.57044,0 1.17051,1.20049 2.91041,1.20049 2.67053,0 4.71065,-2.31033 4.71065,-5.49098 m -19.6522,-13.32159 c 0,-0.83998 0.26988,-1.10984 0.86995,-1.23015 l 0.81034,-0.18026 v -0.57009 h -6.24064 v 0.54046 l 0.66004,0.17992 c 0.59973,0.17991 0.86995,0.42014 0.86995,1.26012 v 16.68179 c 0,0.84031 -0.27022,1.14018 -0.86995,1.29046 l -0.66004,0.17992 v 0.54011 h 9.8111 v -6.84073 h -0.57044 c -0.29951,3.15034 -0.92992,6.1207 -3.48016,6.1207 h -1.20015 z m -19.8628,13.11171 v -0.81001 h -4.04989 l -0.12029,0.81001 z m -17.34185,5.64054 h 1.23014 l 2.79012,-14.76163 h -0.41981 l 3.06035,14.76163 h 1.08021 l 3.66077,-17.40182 c 0.38982,-1.83058 0.59972,-2.46027 1.3201,-2.64089 l 0.57008,-0.14958 v -0.54046 h -4.23086 v 0.54046 l 0.63041,0.11958 c 0.89994,0.18028 1.10984,0.72037 0.69004,2.94041 l -2.37031,11.67164 h 0.36018 l -2.40065,-12.30136 c -0.24024,-1.17051 -0.38982,-2.13041 0.60043,-2.31069 l 0.65969,-0.11958 v -0.54046 h -5.79049 v 0.54046 l 0.38981,0.0899 c 0.60043,0.14958 0.69039,0.51012 0.93028,1.6503 l 0.92992,4.4704 -0.17991,-2.7005 -2.0701,10.92163 h 0.26987 l -2.43028,-12.0015 c -0.27023,-1.23012 -0.36019,-2.16041 0.59972,-2.34033 l 0.45085,-0.0899 v -0.54046 h -5.91115 v 0.54046 l 0.57009,0.14958 c 0.53975,0.15028 0.84032,0.42014 1.2005,2.07044 z m -16.02175,-10.44151 0.92992,0.0303 c 1.35008,0.03 1.74025,0.54011 2.01013,3.8107 h 0.57009 v -8.34108 h -0.57009 c -0.32985,2.61019 -0.68968,3.72003 -1.98014,3.75037 l -0.95991,0.03 v -8.85119 h 2.0701 c 2.30999,0 2.82046,2.97002 3.1503,6.12069 h 0.57009 v -6.84107 h -10.3512 v 0.54046 l 0.6604,0.17992 c 0.68968,0.17991 0.86995,0.60042 0.86995,1.29009 v 16.65182 c 0,0.84031 -0.27023,1.14018 -0.86995,1.29046 l -0.6604,0.17992 v 0.54011 h 10.65142 v -6.84073 h -0.57045 c -0.35948,3.12034 -0.74965,6.1207 -3.45016,6.1207 h -2.0701 z m -18.87256,10.38154 h 6.15069 v -0.54011 l -0.68969,-0.14992 c -0.54045,-0.11995 -0.90028,-0.48015 -0.90028,-1.32046 v -8.19043 h 4.53037 v 8.19043 c 0,0.84031 -0.35984,1.20051 -0.89994,1.32046 l -0.69003,0.14992 v 0.54011 h 6.15068 v -0.54011 l -0.66005,-0.17992 c -0.59972,-0.15028 -0.8703,-0.48048 -0.8703,-1.3201 v -16.65215 c 0,-0.83998 0.27058,-1.10984 0.8703,-1.26012 l 0.66005,-0.17992 v -0.54046 h -6.15068 v 0.54046 l 0.69003,0.17992 c 0.51012,0.15028 0.89994,0.36017 0.89994,1.23012 v 7.71102 h -4.53037 v -7.71102 c 0,-0.84032 0.3302,-1.07984 0.90028,-1.23012 l 0.68969,-0.17992 v -0.54046 h -6.15069 v 0.54046 l 0.66005,0.17992 c 0.60043,0.17991 0.8703,0.42014 0.8703,1.26012 v 16.68179 c 0,0.84031 -0.26987,1.14018 -0.8703,1.29046 l -0.66005,0.17992 z m -4.59069,-19.9524 h 0.66075 c 1.85984,0 2.48991,2.97002 2.69981,6.12069 h 0.57009 v -6.84107 h -10.89096 v 6.84107 h 0.57009 c 0.2099,-3.15067 0.83996,-6.12069 2.69981,-6.12069 h 0.66005 v 17.94191 c 0,0.84031 -0.26953,1.14018 -0.86995,1.29046 l -0.78,0.17992 v 0.54011 h 6.48089 v -0.54011 l -0.92993,-0.20989 c -0.57009,-0.14995 -0.87065,-0.3302 -0.87065,-1.26049 z" />
  </g>
</svg>
